<svg width="140" height="48" viewBox="0 0 140 48" fill="none" xmlns="http://www.w3.org/2000/svg">
<path d="M134.363 20.7128C135.451 20.7128 136.421 20.9663 137.271 21.4734C138.121 21.9804 138.784 22.7111 139.262 23.6655C139.754 24.62 140 25.7384 140 27.0209C140 28.3034 139.754 29.4218 139.262 30.3763C138.784 31.3158 138.121 32.039 137.271 32.546C136.421 33.0531 135.451 33.3066 134.363 33.3066C133.17 33.3066 132.156 33.0083 131.321 32.4118C130.5 31.8004 129.934 31.0026 129.621 30.0183V33.15H127.585V16.5969H129.621V24.0011C129.934 23.0168 130.5 22.2265 131.321 21.63C132.156 21.0185 133.17 20.7128 134.363 20.7128ZM133.781 22.5247C132.991 22.5247 132.275 22.7111 131.634 23.0839C130.993 23.4418 130.493 23.9638 130.135 24.6498C129.777 25.3358 129.598 26.1261 129.598 27.0209C129.598 27.9157 129.777 28.706 130.135 29.392C130.493 30.0631 130.993 30.585 131.634 30.9578C132.275 31.3307 132.991 31.5171 133.781 31.5171C135.049 31.5171 136.055 31.1219 136.801 30.3315C137.562 29.5262 137.942 28.4227 137.942 27.0209C137.942 25.6191 137.562 24.523 136.801 23.7326C136.055 22.9274 135.049 22.5247 133.781 22.5247Z" fill="white"/>
<path d="M124.328 20.8694V33.15H122.292V30.2644C121.979 31.2635 121.42 32.0315 120.615 32.5684C119.824 33.0903 118.9 33.3513 117.841 33.3513C116.424 33.3513 115.276 32.8965 114.396 31.9868C113.516 31.0622 113.076 29.7424 113.076 28.0275V20.8694H115.112V27.8262C115.112 29.049 115.425 29.996 116.051 30.667C116.678 31.3232 117.528 31.6513 118.601 31.6513C119.72 31.6513 120.615 31.2934 121.286 30.5775C121.957 29.8468 122.292 28.788 122.292 27.4011V20.8694H124.328Z" fill="white"/>
<path d="M110.137 16.5969V33.15H108.102V16.5969H110.137Z" fill="white"/>
<path d="M98.8863 25.1864L106.089 33.1498H103.584L97.0073 25.7904V33.1498H94.9717V17.3796H97.0073V24.6943L103.606 17.3796H106.089L98.8863 25.1864Z" fill="white"/>
<path d="M84.9368 20.7129C86.1298 20.7129 87.1364 21.0111 87.9566 21.6077C88.7917 22.2042 89.3733 23.002 89.7014 24.0011V20.8695H91.737V33.1501H89.7014V30.0184C89.3733 31.0176 88.7917 31.8154 87.9566 32.4119C87.1364 33.0084 86.1298 33.3067 84.9368 33.3067C83.8482 33.3067 82.8788 33.0531 82.0288 32.5461C81.1788 32.0391 80.5077 31.3158 80.0156 30.3763C79.5384 29.4219 79.2998 28.3035 79.2998 27.021C79.2998 25.7385 79.5384 24.62 80.0156 23.6656C80.5077 22.7112 81.1788 21.9805 82.0288 21.4734C82.8788 20.9664 83.8482 20.7129 84.9368 20.7129ZM85.5184 22.5248C84.2657 22.5248 83.2591 22.9274 82.4986 23.7327C81.7529 24.5231 81.3801 25.6192 81.3801 27.021C81.3801 28.4228 81.7529 29.5263 82.4986 30.3316C83.2591 31.1219 84.2657 31.5171 85.5184 31.5171C86.3237 31.5171 87.0395 31.3307 87.6658 30.9579C88.3071 30.5851 88.8066 30.0632 89.1646 29.3921C89.5225 28.7061 89.7014 27.9157 89.7014 27.021C89.7014 26.1262 89.5225 25.3358 89.1646 24.6498C88.8066 23.9639 88.3071 23.4419 87.6658 23.084C87.0395 22.7112 86.3237 22.5248 85.5184 22.5248Z" fill="white"/>
<path d="M71.991 20.668C73.4226 20.668 74.5784 21.1303 75.4582 22.0548C76.3381 22.9645 76.778 24.2843 76.778 26.0142V33.1499H74.7424V26.1931C74.7424 24.9703 74.4292 24.0308 73.8029 23.3746C73.1766 22.7185 72.3266 22.3904 71.2528 22.3904C70.1344 22.3904 69.2396 22.7557 68.5686 23.4865C67.8975 24.2023 67.562 25.2536 67.562 26.6405V33.1499H65.5264V20.8693H67.562V23.7773C67.8751 22.7781 68.4269 22.0101 69.2173 21.4733C70.0225 20.9364 70.9471 20.668 71.991 20.668Z" fill="white"/>
<path d="M57.2319 20.7129C58.3205 20.7129 59.2899 20.9664 60.1399 21.4734C60.9899 21.9805 61.6535 22.7112 62.1307 23.6656C62.6229 24.62 62.8689 25.7385 62.8689 27.021C62.8689 28.3035 62.6229 29.4219 62.1307 30.3763C61.6535 31.3158 60.9899 32.0391 60.1399 32.5461C59.2899 33.0531 58.3205 33.3067 57.2319 33.3067C56.0389 33.3067 55.0248 33.0084 54.1897 32.4119C53.3695 31.8005 52.8029 31.0026 52.4897 30.0184V38.966H50.4541V20.8695H52.4897V24.0011C52.8029 23.0169 53.3695 22.2265 54.1897 21.63C55.0248 21.0186 56.0389 20.7129 57.2319 20.7129ZM56.6503 22.5248C55.86 22.5248 55.1441 22.7112 54.5029 23.084C53.8617 23.4419 53.3621 23.9639 53.0042 24.6498C52.6463 25.3358 52.4673 26.1262 52.4673 27.021C52.4673 27.9157 52.6463 28.7061 53.0042 29.3921C53.3621 30.0632 53.8617 30.5851 54.5029 30.9579C55.1441 31.3307 55.86 31.5171 56.6503 31.5171C57.9179 31.5171 58.9245 31.1219 59.6701 30.3316C60.4307 29.5263 60.811 28.4228 60.811 27.021C60.811 25.6192 60.4307 24.5231 59.6701 23.7327C58.9245 22.9274 57.9179 22.5248 56.6503 22.5248Z" fill="white"/>
<path d="M44.8809 29.5039H37.9465L36.6267 33.15H34.4346L40.2729 17.6707H42.5769L48.3928 33.15H46.2007L44.8809 29.5039ZM44.2993 27.9157L41.4137 19.9523L38.5281 27.9157H44.2993Z" fill="white"/>
<path d="M18.0506 26.4008C21.2822 26.4008 23.902 23.781 23.902 20.5494C23.902 17.3178 21.2822 14.698 18.0506 14.698C14.819 14.698 12.1992 17.3178 12.1992 20.5494C12.1992 23.781 14.819 26.4008 18.0506 26.4008Z" fill="white"/>
<path d="M7.95227 18.9487C9.9754 18.9487 11.6155 17.3087 11.6155 15.2855C11.6155 13.2624 9.9754 11.6223 7.95227 11.6223C5.92914 11.6223 4.28906 13.2624 4.28906 15.2855C4.28906 17.3087 5.92914 18.9487 7.95227 18.9487Z" fill="white"/>
<path d="M16.0457 12.6959C17.0569 12.6959 17.8766 11.8762 17.8766 10.865C17.8766 9.85389 17.0569 9.03418 16.0457 9.03418C15.0346 9.03418 14.2148 9.85389 14.2148 10.865C14.2148 11.8762 15.0346 12.6959 16.0457 12.6959Z" fill="white"/>
<path d="M24.0223 15.6149C25.0334 15.6149 25.8531 14.7951 25.8531 13.784C25.8531 12.7728 25.0334 11.9531 24.0223 11.9531C23.0111 11.9531 22.1914 12.7728 22.1914 13.784C22.1914 14.7951 23.0111 15.6149 24.0223 15.6149Z" fill="white"/>
<path d="M27.9383 22.0614C28.9494 22.0614 29.7692 21.2417 29.7692 20.2305C29.7692 19.2194 28.9494 18.3997 27.9383 18.3997C26.9271 18.3997 26.1074 19.2194 26.1074 20.2305C26.1074 21.2417 26.9271 22.0614 27.9383 22.0614Z" fill="white"/>
<path d="M7.95227 28.468C9.9754 28.468 11.6155 26.8279 11.6155 24.8048C11.6155 22.7817 9.9754 21.1416 7.95227 21.1416C5.92914 21.1416 4.28906 22.7817 4.28906 24.8048C4.28906 26.8279 5.92914 28.468 7.95227 28.468Z" fill="white"/>
<path d="M10.8722 37.4644C12.8953 37.4644 14.5354 35.8243 14.5354 33.8011C14.5354 31.778 12.8953 30.1379 10.8722 30.1379C8.84906 30.1379 7.20898 31.778 7.20898 33.8011C7.20898 35.8243 8.84906 37.4644 10.8722 37.4644Z" fill="white"/>
<path d="M25.6554 32.9196C27.6785 32.9196 29.3186 31.2795 29.3186 29.2563C29.3186 27.2332 27.6785 25.5931 25.6554 25.5931C23.6323 25.5931 21.9922 27.2332 21.9922 29.2563C21.9922 31.2795 23.6323 32.9196 25.6554 32.9196Z" fill="white"/>
<path d="M1.83086 22.4098C2.84202 22.4098 3.66173 21.5901 3.66173 20.5789C3.66173 19.5678 2.84202 18.748 1.83086 18.748C0.819706 18.748 0 19.5678 0 20.5789C0 21.5901 0.819706 22.4098 1.83086 22.4098Z" fill="white"/>
<path d="M3.6668 32.7733C4.67796 32.7733 5.49767 31.9536 5.49767 30.9424C5.49767 29.9313 4.67796 29.1116 3.6668 29.1116C2.65564 29.1116 1.83594 29.9313 1.83594 30.9424C1.83594 31.9536 2.65564 32.7733 3.6668 32.7733Z" fill="white"/>
<path d="M17.5379 31.5921C18.5491 31.5921 19.3688 30.7724 19.3688 29.7613C19.3688 28.7501 18.5491 27.9304 17.5379 27.9304C16.5267 27.9304 15.707 28.7501 15.707 29.7613C15.707 30.7724 16.5267 31.5921 17.5379 31.5921Z" fill="white"/>
<path d="M19.8191 37.4895C20.8303 37.4895 21.65 36.6698 21.65 35.6586C21.65 34.6475 20.8303 33.8278 19.8191 33.8278C18.808 33.8278 17.9883 34.6475 17.9883 35.6586C17.9883 36.6698 18.808 37.4895 19.8191 37.4895Z" fill="white"/>
</svg>
