<svg width="90" height="48" viewBox="0 0 90 48" fill="none" xmlns="http://www.w3.org/2000/svg">
<path d="M14.2763 12.6326C11.8433 12.6411 9.59934 13.4558 7.78649 14.8285C5.97445 16.2003 4.59272 18.1303 3.8859 20.3659C3.85726 20.4575 3.81309 20.5417 3.75746 20.6158C3.70019 20.6908 3.63148 20.7549 3.55376 20.8065C2.43299 21.5487 1.51102 22.5732 0.887647 23.7818C0.263455 24.9896 -0.0621395 26.3815 0.00985124 27.8575C0.112929 29.9915 1.06517 31.8731 2.51644 33.2183C3.96689 34.5644 5.91718 35.3749 8.01637 35.3675H14.3532H20.69C22.7884 35.3599 24.7329 34.5244 26.1752 33.1584C27.6175 31.7907 28.5566 29.8924 28.645 27.7567C28.708 26.2807 28.3717 24.8913 27.7394 23.6869C27.1078 22.4833 26.1793 21.4654 25.0544 20.7324C24.9751 20.6799 24.9056 20.6158 24.8491 20.5425C24.7918 20.4684 24.7485 20.3851 24.719 20.2934C23.9967 18.0628 22.6027 16.1429 20.78 14.7826C18.959 13.4233 16.7092 12.6236 14.2763 12.6326ZM14.2861 15.4689C16.0818 15.4623 17.7867 16.0687 19.1717 17.1132C20.5575 18.1586 21.6218 19.6421 22.138 21.3921L22.2493 21.7711L22.3613 22.1501C22.3908 22.2484 22.4374 22.3383 22.4988 22.4183C22.5593 22.4983 22.6354 22.5657 22.7221 22.6182L23.0567 22.819L23.3921 23.0205C24.1946 23.502 24.8303 24.1758 25.2565 24.9671C25.6827 25.7576 25.8987 26.6647 25.8635 27.6142C25.812 28.9928 25.2025 30.2147 24.2691 31.0935C23.3348 31.9722 22.075 32.5078 20.7211 32.512L14.3434 32.5353L7.96565 32.5571C6.61173 32.562 5.3478 32.0356 4.40783 31.1626C3.46786 30.2905 2.85185 29.0727 2.79049 27.695C2.74795 26.7455 2.95902 25.8376 3.37951 25.0429C3.8 24.2491 4.43155 23.5711 5.23163 23.0838L5.56541 22.8806L5.89837 22.6774C5.98426 22.624 6.05953 22.5557 6.12006 22.4758C6.1806 22.3958 6.22723 22.3042 6.25505 22.2059L6.36467 21.8261L6.47429 21.4471C6.97741 19.6937 8.03273 18.2019 9.41119 17.1474C10.7888 16.0929 12.4896 15.4748 14.2861 15.4689Z" fill="white"/>
<path d="M12.125 22.3533C12.125 22.5199 12.0595 22.6715 11.9523 22.7814C11.8452 22.8914 11.6971 22.9597 11.5327 22.9605L10.9347 22.9622L10.3358 22.9647C10.1722 22.9647 10.0241 22.8972 9.91615 22.7881C9.80816 22.6798 9.74108 22.529 9.74026 22.3624L9.73781 21.7527L9.73535 21.143C9.73535 20.9764 9.80162 20.8248 9.90878 20.7149C10.016 20.6049 10.164 20.5366 10.3285 20.5358L10.9265 20.5341L11.5253 20.5316C11.6889 20.5316 11.837 20.5999 11.945 20.7082C12.053 20.8173 12.12 20.9681 12.1209 21.1347L12.1233 21.7444L12.125 22.3533ZM15.5107 22.3533C15.5115 22.5199 15.4453 22.6715 15.3381 22.7814C15.2309 22.8914 15.0829 22.9597 14.9184 22.9605L14.3204 22.9622L13.7216 22.9647C13.558 22.9647 13.4099 22.8972 13.3019 22.7881C13.1939 22.6798 13.1269 22.529 13.126 22.3624L13.1236 21.7527L13.1219 21.143C13.1211 20.9764 13.1874 20.8248 13.2946 20.7149C13.4017 20.6049 13.5506 20.5366 13.7142 20.5358L14.3122 20.5341L14.9111 20.5316C15.0747 20.5316 15.2228 20.5999 15.3307 20.7082C15.4387 20.8173 15.5058 20.9681 15.5066 21.1347L15.5091 21.7444L15.5107 22.3533ZM18.8972 22.3541C18.8972 22.5207 18.831 22.6723 18.7238 22.7823C18.6166 22.8922 18.4686 22.9605 18.3041 22.9613L17.7061 22.963L17.1073 22.9647C16.9437 22.9655 16.7948 22.898 16.6868 22.7889C16.5788 22.6806 16.5117 22.529 16.5117 22.3624L16.5093 21.7527L16.5076 21.1438C16.5068 20.9764 16.5731 20.8248 16.6802 20.7149C16.7874 20.6049 16.9355 20.5366 17.0999 20.5358L17.6979 20.5341L18.2968 20.5316C18.4612 20.5283 18.6117 20.5916 18.7222 20.699C18.8326 20.8057 18.9038 20.9548 18.9079 21.1222V21.1288V21.1347L18.9021 21.7444L18.8972 22.3541ZM12.1265 25.7998C12.1265 25.9664 12.0611 26.118 11.9531 26.2279C11.8459 26.3379 11.6987 26.4062 11.5342 26.407L10.9362 26.4087L10.3374 26.4112C10.1738 26.4112 10.0257 26.3437 9.9177 26.2346C9.80971 26.1263 9.74263 25.9755 9.741 25.8089L9.73936 25.1984L9.73691 24.5895C9.73691 24.4229 9.80317 24.2713 9.91034 24.1614C10.0175 24.0514 10.1656 23.9831 10.3292 23.9823L10.928 23.9798L11.5269 23.9781C11.6905 23.9781 11.8385 24.0464 11.9465 24.1547C12.0545 24.2638 12.1216 24.4146 12.1224 24.5812L12.1249 25.1909L12.1265 25.7998ZM15.5123 25.7998C15.5123 25.9664 15.4468 26.118 15.3397 26.2279C15.2325 26.3379 15.0844 26.4062 14.92 26.407L14.322 26.4087L13.7231 26.4112C13.5595 26.4112 13.4115 26.3437 13.3035 26.2346C13.1955 26.1263 13.1284 25.9755 13.1276 25.8089L13.1251 25.1984L13.1227 24.5895C13.1227 24.4229 13.1889 24.2713 13.2961 24.1614C13.4033 24.0514 13.5514 23.9831 13.7158 23.9823L14.3138 23.9798L14.9126 23.9781C15.0762 23.9781 15.2243 24.0464 15.3323 24.1547C15.4403 24.2638 15.5074 24.4146 15.5082 24.5812L15.5106 25.1909L15.5123 25.7998ZM18.8981 25.7998C18.8981 25.9664 18.8326 26.118 18.7254 26.2279C18.6183 26.3379 18.4702 26.4062 18.3058 26.407L17.7078 26.4087L17.1089 26.4112C16.9453 26.4112 16.7964 26.3445 16.6884 26.2354C16.5804 26.1271 16.5134 25.9755 16.5134 25.8089L16.5109 25.1984L16.5085 24.5895C16.5085 24.4229 16.5739 24.2713 16.6819 24.1614C16.7891 24.0514 16.9371 23.9831 17.1016 23.9823L17.6996 23.9798L18.2984 23.9781C18.462 23.9781 18.6101 24.0464 18.7181 24.1547C18.8261 24.2638 18.8931 24.4146 18.894 24.5812L18.8964 25.1909L18.8981 25.7998ZM12.1282 29.2455C12.129 29.4121 12.0627 29.5646 11.9555 29.6745C11.8484 29.7836 11.7003 29.8528 11.5359 29.8528L10.9378 29.8544L10.339 29.8561C10.1746 29.8569 10.0265 29.7895 9.91852 29.6803C9.81053 29.5721 9.74345 29.4213 9.74263 29.2539L9.741 28.6441L9.73854 28.0353C9.73854 27.8687 9.80481 27.7171 9.91197 27.6071C10.0191 27.4972 10.1672 27.4289 10.3308 27.428L10.9288 27.4255L11.5285 27.4239C11.6921 27.423 11.8402 27.4913 11.9482 27.5996C12.0562 27.7087 12.1232 27.8603 12.1241 28.0269L12.1257 28.6366L12.1282 29.2455ZM15.5139 29.2455C15.5147 29.4121 15.4485 29.5646 15.3413 29.6745C15.2341 29.7836 15.0861 29.8528 14.9216 29.8528L14.3236 29.8544L13.7248 29.8561C13.5604 29.8569 13.4123 29.7895 13.3043 29.6803C13.1963 29.5721 13.1292 29.4213 13.1284 29.2539L13.1268 28.6441L13.1243 28.0353C13.1243 27.8687 13.1906 27.7171 13.2977 27.6071C13.4049 27.4972 13.553 27.4289 13.7166 27.428L14.3154 27.4255L14.9143 27.4239C15.0779 27.423 15.226 27.4913 15.3339 27.5996C15.4419 27.7087 15.509 27.8603 15.5098 28.0269L15.5123 28.6366L15.5139 29.2455ZM18.8996 29.2455C18.9004 29.4121 18.8342 29.5646 18.727 29.6745C18.6198 29.7836 18.4718 29.8528 18.3073 29.8528L17.7093 29.8544L17.1105 29.8561C16.946 29.8569 16.798 29.7895 16.69 29.6803C16.582 29.5721 16.5149 29.4213 16.5141 29.2539L16.5125 28.6441L16.51 28.0353C16.51 27.8687 16.5755 27.7162 16.6826 27.6063C16.7898 27.4963 16.9387 27.428 17.1031 27.428L17.7011 27.4255L18.3 27.4239C18.4636 27.423 18.6116 27.4913 18.7196 27.5996C18.8276 27.7087 18.8947 27.8603 18.8955 28.0269L18.898 28.6366L18.8996 29.2455Z" fill="white"/>
<path d="M42.6713 26.4813C42.9134 26.214 43.0942 25.8983 43.2137 25.5326C43.3347 25.1678 43.3936 24.7538 43.3921 24.2907C43.3904 23.8267 43.3282 23.4127 43.2055 23.0496C43.0828 22.6847 42.8995 22.3699 42.6566 22.1042C42.4136 21.8393 42.1354 21.6402 41.8246 21.5078C41.5129 21.3762 41.1677 21.3104 40.7889 21.312C40.4093 21.3137 40.0649 21.3812 39.7548 21.5153C39.4448 21.6494 39.1683 21.8501 38.9269 22.1175C38.6848 22.3849 38.5032 22.7006 38.3837 23.0654C38.2635 23.4311 38.2046 23.845 38.2062 24.309C38.2079 24.7713 38.2692 25.1853 38.3927 25.5501C38.5146 25.9133 38.6979 26.2281 38.9409 26.4947C39.1846 26.7595 39.462 26.9586 39.7737 27.0902C40.0845 27.2227 40.4298 27.2885 40.8093 27.2869C41.1881 27.2851 41.5325 27.2177 41.8426 27.0836C42.1534 26.9494 42.4291 26.7479 42.6713 26.4813ZM44.2461 18.6C44.705 18.8648 45.1173 19.1855 45.4838 19.5628C45.8487 19.9393 46.1661 20.3733 46.4377 20.8622C46.7085 21.3512 46.9122 21.8809 47.048 22.449C47.1846 23.0179 47.2541 23.6268 47.2559 24.2757C47.2582 24.9237 47.1928 25.5326 47.0603 26.1023C46.9277 26.6721 46.7273 27.2027 46.4606 27.6933C46.1931 28.1847 45.8773 28.6195 45.5149 28.9993C45.1517 29.3792 44.7418 29.7024 44.2845 29.9706C43.8264 30.2388 43.3429 30.4403 42.8333 30.5753C42.3236 30.7094 41.7894 30.7777 41.2274 30.7802C40.5075 30.7827 39.8645 30.6752 39.2959 30.457C38.7265 30.2404 38.2308 29.9114 37.8054 29.4733L37.8062 31.9963V34.5193C37.807 34.7467 37.717 34.9524 37.5722 35.1024C37.4258 35.2515 37.2245 35.3448 37.0012 35.3456L35.6481 35.3498L34.2958 35.3539C34.0725 35.3548 33.8696 35.264 33.7232 35.1157C33.5767 34.9674 33.4851 34.7617 33.4851 34.5351L33.4638 26.6538L33.4434 18.7724C33.4426 18.5458 33.5325 18.3401 33.6782 18.1901C33.8238 18.0402 34.0258 17.9478 34.2484 17.9469L35.4984 17.9428L36.7492 17.9386C36.9726 17.9378 37.1746 18.0294 37.3211 18.1768C37.4683 18.3259 37.5591 18.5308 37.5599 18.7582L37.555 19.0206L37.5501 19.283C37.9502 18.7957 38.4533 18.4292 39.0587 18.1843C39.664 17.9386 40.3725 17.8153 41.1848 17.8119C41.7452 17.8103 42.2802 17.8745 42.7907 18.0061C43.302 18.1368 43.7863 18.3359 44.2461 18.6ZM50.0284 13.5974L51.3807 13.5924L52.7346 13.5874C52.9571 13.5866 53.1592 13.6782 53.3064 13.8265C53.4537 13.9747 53.5445 14.1805 53.5453 14.4079V22.1768V29.9457C53.5461 30.1723 53.4561 30.378 53.3105 30.528C53.1649 30.6771 52.9637 30.7695 52.7395 30.7704L51.3872 30.7754L50.0341 30.7804C49.8108 30.7812 49.6087 30.6904 49.4623 30.5413C49.3159 30.393 49.2251 30.1873 49.2242 29.9607V22.191L49.2234 14.422C49.2226 14.1955 49.3126 13.9897 49.4582 13.8398C49.603 13.6907 49.8059 13.5982 50.0284 13.5974ZM75.5853 19.3175L74.4858 22.0545L73.3863 24.7924L72.2868 27.5303L71.1865 30.2683C71.1554 30.3457 71.1137 30.4157 71.0646 30.4782C71.0139 30.5406 70.9558 30.5948 70.8903 30.6389C70.8257 30.6839 70.7545 30.7189 70.6785 30.743C70.6032 30.7664 70.5238 30.7797 70.442 30.7797H69.5961H68.7503L67.9035 30.7805H67.0577C66.9758 30.7805 66.8957 30.768 66.8196 30.7447C66.7443 30.7214 66.6723 30.6864 66.6069 30.6431C66.5423 30.5981 66.4834 30.5448 66.4326 30.4823C66.3819 30.4207 66.3402 30.3499 66.3083 30.2733L65.2055 27.5362L64.1036 24.7999L63 22.0637L61.898 19.3266C61.8424 19.1917 61.8261 19.0534 61.84 18.921C61.8547 18.7894 61.8997 18.6644 61.9709 18.5553C62.0412 18.447 62.1377 18.3562 62.2515 18.2913C62.3652 18.2263 62.4969 18.1896 62.6409 18.1888L63.3109 18.1863L63.9801 18.1838L64.6501 18.1813L65.3192 18.1796C65.4027 18.1788 65.4829 18.1913 65.5598 18.2155C65.6367 18.2396 65.7095 18.2754 65.7749 18.3204C65.8412 18.3654 65.9001 18.4212 65.9508 18.4845C66.0007 18.5478 66.0424 18.6194 66.0735 18.6986L66.7681 20.4811L67.4626 22.2653L68.158 24.0486L68.8533 25.832L69.5691 24.0494L70.2866 22.2669L71.0041 20.4844L71.7215 18.7019C71.7518 18.6253 71.7935 18.5536 71.8442 18.4903C71.8941 18.427 71.9538 18.3712 72.0185 18.3254C72.0831 18.2796 72.1551 18.2429 72.2295 18.218C72.3056 18.193 72.385 18.1796 72.4668 18.1796L73.0591 18.1805L73.6514 18.1813L74.2428 18.1821L74.8351 18.183C74.9791 18.183 75.1116 18.2196 75.2262 18.2829C75.3399 18.3471 75.4356 18.4379 75.5076 18.5453C75.5787 18.6536 75.6262 18.7794 75.6409 18.911C75.6565 19.0426 75.6393 19.1817 75.5853 19.3175ZM84.9125 26.33C85.1538 26.0634 85.3354 25.7453 85.4549 25.3754C85.5751 25.0073 85.6349 24.5866 85.6333 24.116C85.6316 23.6529 85.5694 23.2406 85.4467 22.8774C85.324 22.5159 85.1407 22.2035 84.897 21.9412C84.654 21.6805 84.3767 21.4847 84.065 21.3539C83.7541 21.224 83.4089 21.1599 83.0293 21.1607C82.6505 21.1624 82.3053 21.229 81.9961 21.3614C81.6852 21.4939 81.4095 21.6921 81.1682 21.9545C80.926 22.2177 80.7444 22.5309 80.625 22.8949C80.5047 23.2581 80.4458 23.6712 80.4474 24.1343C80.4491 24.6058 80.5104 25.0247 80.634 25.3929C80.7559 25.7611 80.9391 26.0776 81.1821 26.3433C81.4259 26.609 81.7032 26.8073 82.0149 26.9389C82.3257 27.0721 82.671 27.1371 83.0506 27.1363C83.4293 27.1346 83.7729 27.0671 84.0838 26.933C84.3947 26.7981 84.6704 26.5974 84.9125 26.33ZM79.4878 29.8117C78.9569 29.536 78.4824 29.2053 78.066 28.8205C77.6496 28.4357 77.2913 27.9976 76.9894 27.5044C76.6884 27.0113 76.4626 26.4857 76.3104 25.9268C76.1591 25.3671 76.0822 24.7749 76.0804 24.1502C76.0781 23.5321 76.1509 22.9457 76.299 22.3893C76.4462 21.8329 76.6696 21.3073 76.9673 20.8117C77.2651 20.3169 77.6202 19.8763 78.0317 19.4906C78.444 19.1058 78.9127 18.7751 79.4388 18.4994C79.9648 18.2237 80.526 18.0163 81.1224 17.8772C81.7196 17.7381 82.3511 17.6665 83.0187 17.6647C83.6854 17.6623 84.3178 17.7281 84.9182 17.863C85.5171 17.998 86.0832 18.2012 86.6141 18.4736C87.1459 18.7468 87.6195 19.0725 88.0335 19.4531C88.4474 19.8338 88.8041 20.2686 89.1011 20.7584C89.398 21.2465 89.6222 21.7696 89.7719 22.3268C89.9216 22.8841 89.9977 23.4755 89.9994 24.101C90.0018 24.7257 89.9298 25.3188 89.7841 25.8794C89.6377 26.4391 89.4185 26.9672 89.1231 27.462C88.8295 27.9567 88.4769 28.3982 88.0654 28.7855C87.6531 29.1728 87.1818 29.506 86.6526 29.7859C86.1224 30.0658 85.5588 30.2765 84.9608 30.4173C84.3619 30.558 83.7287 30.6297 83.0612 30.6323C82.4026 30.6347 81.7744 30.5672 81.1796 30.4306C80.5832 30.294 80.0204 30.0874 79.4878 29.8117ZM59.6153 17.2896H58.281H56.9475C56.7201 17.2896 56.5131 17.1954 56.3634 17.043C56.2145 16.8906 56.1213 16.6807 56.1213 16.4483V15.4379V14.4284C56.1213 14.196 56.2145 13.9861 56.3634 13.8345C56.5131 13.682 56.7201 13.5879 56.9475 13.5879H58.281H59.6153C59.8427 13.5879 60.0497 13.682 60.1994 13.8345C60.3483 13.9861 60.4407 14.196 60.4407 14.4284V15.4379V16.4483C60.4407 16.6807 60.3483 16.8906 60.1994 17.043C60.0497 17.1954 59.8427 17.2896 59.6153 17.2896ZM59.6153 30.7803H58.281H56.9475C56.7201 30.7803 56.5131 30.6861 56.3634 30.5337C56.2145 30.3813 56.1213 30.1722 56.1213 29.939V24.484V19.0298C56.1213 18.7974 56.2145 18.5875 56.3634 18.4351C56.5131 18.2827 56.7201 18.1894 56.9475 18.1894H58.281H59.6153C59.8427 18.1894 60.0497 18.2827 60.1994 18.4351C60.3483 18.5875 60.4407 18.7974 60.4407 19.0298V24.484V29.939C60.4407 30.1722 60.3483 30.3813 60.1994 30.5337C60.0497 30.6861 59.8427 30.7803 59.6153 30.7803Z" fill="white"/>
</svg>
